PathFileType	4	(X/Y/Z)	c:/Users/goper/Files/vsCode/490R/osim_files/A04/A04_Fast_01.trc
DataRate	CameraRate	NumFrames	NumMarkers	Units                	OrigDataRate	OrigDataStartFrame	OrigNumFrames
120.00	120.00	7	36	mm	120.0	1429	1905
                Frame#	Time	LPSIS			LASIS			LTH1			LTH2			LTH3			LTH4			LLFE			LMFE			LSH1			LSH2			LSH3			LSH4			LLMAL			LMMAL			LCAL			LMTP5			LTOE			LMTP1			RPSIS			RASIS			RTH1			RTH2			RTH3			RTH4			RLFE			RMFE			RSH1			RSH2			RSH3			RSH4			RLMAL			RMMAL			RCAL			RMTP1			RTOE			RMTP5		
		X1	Y1	Z1	X2	Y2	Z2	X3	Y3	Z3	X4	Y4	Z4	X5	Y5	Z5	X6	Y6	Z6	X7	Y7	Z7	X8	Y8	Z8	X9	Y9	Z9	X10	Y10	Z10	X11	Y11	Z11	X12	Y12	Z12	X13	Y13	Z13	X14	Y14	Z14	X15	Y15	Z15	X16	Y16	Z16	X17	Y17	Z17	X18	Y18	Z18	X19	Y19	Z19	X20	Y20	Z20	X21	Y21	Z21	X22	Y22	Z22	X23	Y23	Z23	X24	Y24	Z24	X25	Y25	Z25	X26	Y26	Z26	X27	Y27	Z27	X28	Y28	Z28	X29	Y29	Z29	X30	Y30	Z30	X31	Y31	Z31	X32	Y32	Z32	X33	Y33	Z33	X34	Y34	Z34	X35	Y35	Z35	X36	Y36	Z36

1429	11.90000	-553.03040	1079.73572	341.07385	-774.44727	1035.85889	418.40253	-816.39569	737.95197	462.12509	-838.48590	699.23004	462.29404	-871.97253	764.49799	455.45853	-887.58203	721.74500	457.40985	-912.87946	574.16656	454.62433	-921.79919	572.17682	314.45575	-847.08685	488.93637	456.84570	-838.10052	445.69562	454.24939	-904.34125	470.46515	443.47443	-884.93457	429.46680	439.19110	-720.22345	189.62146	411.19183	-742.50641	184.08034	326.77649	-646.31348	181.48901	355.19571	-823.10535	79.92877	445.01688	-872.35406	73.49951	384.10040	-851.04480	68.15152	339.19449	-548.89453	1068.97498	235.03375	-768.50946	1030.75623	133.94003	-636.59119	731.60699	114.24117	-640.87128	689.43201	115.82323	-697.32733	732.04474	101.58237	-693.95129	684.69330	107.86076	-684.58508	550.64990	138.92751	-700.94708	547.46747	253.25769	-605.26245	343.95059	153.08499	-606.80017	296.81427	161.55637	-664.86096	338.44037	142.29866	-656.78528	291.49387	148.67444	-615.07648	102.15430	158.04111	-652.49939	113.77309	288.34204	-554.31378	60.08917	242.67813	-780.41064	58.69072	257.10944	-799.16498	80.51670	209.08934	-759.90735	52.77570	139.57974
1430	11.90833	-562.58765	1079.07190	340.95184	-784.10223	1034.98340	417.82303	-827.60394	737.74432	460.98038	-849.84845	699.25305	461.04861	-882.57123	764.92139	454.04565	-898.65088	722.28094	455.91837	-924.96484	575.72913	452.94040	-933.13049	574.54944	312.91846	-863.50934	487.19333	455.68622	-856.55121	443.78683	453.05411	-921.55133	471.74179	441.58713	-903.57843	429.46899	437.51315	-751.08606	182.19435	410.52597	-773.03046	177.81990	325.84943	-678.17926	169.76414	354.11914	-859.36206	77.69065	443.50842	-908.46375	73.61912	382.23843	-887.12384	67.32932	337.48148	-558.37531	1068.34644	234.91231	-777.90692	1029.80798	133.24118	-642.58655	732.16986	113.78319	-645.90564	690.05505	115.67599	-702.85455	731.76416	101.41072	-699.07861	684.37286	107.92010	-687.63184	550.41364	139.03783	-703.58704	546.96033	253.35902	-606.50244	344.23401	153.19116	-607.89960	297.01224	161.66943	-666.22174	338.39536	142.39870	-657.88257	291.41888	148.76955	-615.33978	102.33598	158.10794	-653.12616	113.60387	288.39746	-554.60461	60.22668	242.64899	-781.55505	59.15437	257.24344	-799.27985	80.39697	208.97754	-760.00110	52.67228	139.61302
1431	11.91667	-572.17792	1078.23071	340.90036	-793.63751	1033.70691	417.22263	-838.05609	737.14789	460.01303	-860.67371	698.93945	459.87613	-892.72607	764.84509	452.62744	-909.30194	722.39539	454.31223	-936.44312	576.79633	451.28320	-943.72699	575.99829	311.12988	-879.24567	485.34207	454.03894	-874.53369	441.62976	451.64828	-938.17560	472.64899	439.80667	-921.92487	429.36652	435.81503	-782.02667	175.07961	409.72873	-803.69220	171.81491	324.85455	-709.60815	158.79778	353.65573	-895.72150	76.10635	441.88519	-944.49866	74.58350	380.16742	-923.29932	67.09407	335.57281	-567.72498	1067.71338	234.82440	-787.25580	1028.74084	132.75145	-648.08649	732.50134	113.58549	-651.73218	690.07880	115.33195	-708.95593	731.28949	101.37857	-704.30585	684.08655	107.94497	-689.61316	550.22485	139.86002	-706.33099	546.62634	253.51469	-608.37860	344.52866	153.23898	-609.53864	297.22836	161.77968	-667.69147	338.38455	142.37306	-659.11682	291.40607	148.84534	-615.66968	102.50067	158.16631	-653.44873	113.70324	288.36108	-554.65845	60.60176	242.64528	-781.60999	58.88567	257.32706	-799.69116	79.84319	209.30858	-760.09668	52.54859	139.66014
1432	11.92500	-581.84839	1077.12598	340.83060	-803.53955	1032.24438	416.77084	-848.25049	736.24237	458.93671	-871.19055	698.14624	458.56039	-902.49127	764.33142	451.06210	-919.49384	721.97241	452.81317	-947.20758	577.26294	449.60449	-953.61469	576.70697	309.33264	-894.37909	482.72723	452.95639	-892.45844	439.57074	450.13620	-954.34479	473.34555	437.45447	-943.05914	431.48950	435.38110	-812.87927	168.69434	409.21841	-835.02728	166.40424	323.59711	-740.83948	148.59622	353.67563	-931.97076	75.27522	440.20828	-980.44574	76.16850	378.09946	-959.33099	67.66118	333.82919	-577.26892	1066.79175	234.83455	-796.74774	1027.61377	132.23755	-653.89722	732.93982	113.09570	-657.27026	690.38245	115.02214	-714.91803	730.83539	101.31693	-709.74579	683.70172	107.99585	-693.51520	549.75873	139.21317	-709.26721	546.30212	253.64876	-609.73553	344.89648	153.22754	-610.99060	297.45432	161.86940	-669.22601	338.28534	142.40556	-660.42163	291.42899	148.83736	-616.06342	102.70934	158.24155	-653.42877	113.91080	288.48303	-554.80298	60.94194	242.66202	-781.69446	58.61672	257.38275	-799.62073	79.68482	209.26091	-760.18243	52.45841	139.67403
1433	11.93333	-591.38861	1075.82947	340.88690	-813.24854	1030.51990	416.46442	-858.11499	734.95892	457.65680	-881.38086	697.00446	457.26984	-911.87018	762.71619	450.12497	-929.18866	720.75684	451.31177	-957.54437	577.10510	447.92853	-963.35779	576.89587	307.59564	-910.10846	480.23068	451.29373	-910.00793	436.84872	448.56473	-969.86621	473.96313	436.07611	-960.65057	431.47836	433.60217	-844.55774	161.72081	407.59451	-865.45520	161.01584	322.46667	-772.80786	138.44867	353.09497	-968.01947	75.12086	438.45041	-1015.95404	78.49556	376.04617	-995.00488	68.75751	331.84235	-586.90680	1065.63477	234.84573	-806.21613	1026.34521	131.86229	-660.05884	733.17749	112.63878	-662.87122	690.59216	114.78165	-721.07971	730.33521	101.26394	-715.54596	683.19922	108.21648	-697.14587	549.36011	139.28311	-712.51294	546.03821	253.80721	-611.57788	345.14203	153.28569	-611.93042	297.83719	161.77686	-670.99445	338.23596	142.41818	-661.98102	291.42831	148.85152	-616.44452	102.97696	158.28485	-653.86517	113.96297	288.46033	-554.97449	61.29740	242.67297	-782.07245	58.27578	257.44653	-799.91510	79.25205	209.45676	-760.15466	52.39188	139.69415
1434	11.94167	-601.00500	1074.31482	341.01349	-823.08716	1028.51770	416.21747	-867.66107	733.26154	456.38525	-891.12463	695.42572	455.84354	-921.54071	761.51056	448.84805	-939.05139	719.23077	450.75546	-967.52350	576.30048	446.13123	-972.96368	576.28113	305.84885	-924.85431	477.23105	449.81656	-927.07605	433.92929	447.00073	-984.99384	473.96472	434.36359	-977.65729	431.08835	431.97791	-875.41486	155.67012	406.41199	-896.34790	155.94199	321.17383	-805.38599	128.33232	351.82584	-1003.50763	75.60411	436.74506	-1050.86768	81.39245	374.09357	-1030.62329	71.01791	329.92484	-596.51141	1064.33044	234.95142	-815.83325	1025.00891	131.51985	-666.33643	733.36310	112.26156	-668.56403	690.76465	114.52693	-727.40057	729.76624	101.24667	-721.15497	682.75940	108.28425	-700.95837	549.07446	139.18973	-715.99835	545.58911	253.96558	-613.56744	345.33478	153.27495	-614.07623	297.96155	161.91403	-672.88196	338.15286	142.36031	-663.47668	291.35574	148.86053	-616.92706	103.22956	158.31645	-653.97314	114.12749	288.75296	-555.16235	61.62377	242.68391	-782.80017	57.53350	257.07022	-799.99121	79.09497	209.37405	-760.26154	52.24868	139.72058
1435	11.95000	-610.13452	1072.57336	341.68265	-833.36359	1026.56702	416.11978	-877.02393	731.32990	454.91110	-900.40613	693.52771	454.37595	-930.72723	759.59607	447.45444	-948.13770	717.06329	449.58286	-977.32465	574.89886	444.41565	-982.65515	575.01752	304.07269	-939.60767	473.67883	448.03833	-943.59546	430.69791	445.59164	-999.65594	473.46820	432.67203	-994.52161	430.42487	430.41663	-906.31250	150.14091	405.14703	-926.86047	151.56120	319.87277	-836.83673	119.62980	351.11646	-1038.33081	76.57887	435.06619	-1086.32715	86.05110	371.45633	-1065.28088	73.50141	328.05780	-606.29926	1062.85291	234.99409	-825.64447	1023.60223	131.30957	-672.73047	733.49658	111.76690	-674.76788	691.02826	114.01472	-733.92957	729.11505	101.24424	-726.98792	682.26630	108.38876	-704.92346	548.62860	139.07344	-719.62665	545.18536	254.09460	-615.66174	345.58966	153.27060	-615.83765	298.29590	161.88235	-674.83783	338.04651	142.32321	-665.22375	291.35809	148.81584	-617.36176	103.52119	158.39120	-654.51141	114.13196	288.73529	-555.42914	61.94183	242.71886	-782.85492	57.09666	257.17618	-800.24164	78.63380	209.49333	-760.52100	52.07127	139.73859
